STARTFONT 2.1
FONT -FontForge-Pixellari-Medium-R-Normal--14-100-100-100-P-76-ISO10646-1
SIZE 10 100 100
FONTBOUNDINGBOX 14 15 -2 -4
COMMENT "Generated by fontforge, http://fontforge.sourceforge.net"
COMMENT "ZaccharyDempseyP"
STARTPROPERTIES 39
FOUNDRY "FontForge"
FAMILY_NAME "Pixellari"
WEIGHT_NAME "Medium"
SLANT "R"
SETWIDTH_NAME "Normal"
ADD_STYLE_NAME ""
PIXEL_SIZE 14
POINT_SIZE 100
RESOLUTION_X 100
RESOLUTION_Y 100
SPACING "P"
AVERAGE_WIDTH 76
CHARSET_REGISTRY "ISO10646"
CHARSET_ENCODING "1"
FONTNAME_REGISTRY ""
CHARSET_COLLECTIONS "ISO8859-2 ISO8859-9 ISO8859-4 ISO10646-1"
FONT_NAME "Pixellari"
FACE_NAME "Pixellari"
COPYRIGHT "ZaccharyDempseyP"
FONT_VERSION "001.000"
FONT_ASCENT 10
FONT_DESCENT 4
UNDERLINE_POSITION -2
UNDERLINE_THICKNESS 1
X_HEIGHT 6
CAP_HEIGHT 9
RAW_ASCENT 750
RAW_DESCENT 250
NORM_SPACE 4
RELATIVE_WEIGHT 50
RELATIVE_SETWIDTH 50
SUPERSCRIPT_X 0
SUPERSCRIPT_Y 6
SUPERSCRIPT_SIZE 9
SUBSCRIPT_X 0
SUBSCRIPT_Y 1
SUBSCRIPT_SIZE 9
AVG_LOWERCASE_WIDTH 68
AVG_UPPERCASE_WIDTH 88
ENDPROPERTIES
CHARS 322
STARTCHAR space
ENCODING 32
SWIDTH 312 0
DWIDTH 4 0
BBX 1 1 0 0
BITMAP
00
ENDCHAR
STARTCHAR exclam
ENCODING 33
SWIDTH 250 0
DWIDTH 4 0
BBX 2 10 1 0
BITMAP
C0
C0
C0
C0
C0
C0
C0
00
C0
C0
ENDCHAR
STARTCHAR quotedbl
ENCODING 34
SWIDTH 437 0
DWIDTH 6 0
BBX 4 4 1 6
BITMAP
F0
F0
F0
F0
ENDCHAR
STARTCHAR numbersign
ENCODING 35
SWIDTH 562 0
DWIDTH 8 0
BBX 7 11 0 0
BITMAP
6C
6C
6C
FE
FE
6C
6C
FE
6C
6C
6C
ENDCHAR
STARTCHAR dollar
ENCODING 36
SWIDTH 562 0
DWIDTH 8 0
BBX 5 11 2 -1
BITMAP
60
60
78
F8
E0
F0
78
F8
F0
60
60
ENDCHAR
STARTCHAR percent
ENCODING 37
SWIDTH 875 0
DWIDTH 12 0
BBX 11 10 0 0
BITMAP
30C0
71C0
DB80
DB00
DEC0
7FE0
3F20
1B20
31E0
30C0
ENDCHAR
STARTCHAR ampersand
ENCODING 38
SWIDTH 625 0
DWIDTH 9 0
BBX 7 11 1 0
BITMAP
38
7C
EC
DC
F8
70
70
FC
CC
FE
7E
ENDCHAR
STARTCHAR quotesingle
ENCODING 39
SWIDTH 250 0
DWIDTH 4 0
BBX 2 4 1 6
BITMAP
C0
C0
C0
C0
ENDCHAR
STARTCHAR parenleft
ENCODING 40
SWIDTH 312 0
DWIDTH 4 0
BBX 3 11 1 -1
BITMAP
60
60
C0
C0
C0
C0
C0
C0
C0
60
60
ENDCHAR
STARTCHAR parenright
ENCODING 41
SWIDTH 375 0
DWIDTH 5 0
BBX 2 11 2 -1
BITMAP
C0
C0
40
40
40
40
40
40
40
C0
C0
ENDCHAR
STARTCHAR asterisk
ENCODING 42
SWIDTH 437 0
DWIDTH 6 0
BBX 5 6 0 5
BITMAP
30
F8
F8
70
F8
D8
ENDCHAR
STARTCHAR plus
ENCODING 43
SWIDTH 500 0
DWIDTH 7 0
BBX 5 5 1 2
BITMAP
20
20
F8
F8
20
ENDCHAR
STARTCHAR comma
ENCODING 44
SWIDTH 250 0
DWIDTH 4 0
BBX 2 4 1 -2
BITMAP
C0
C0
40
80
ENDCHAR
STARTCHAR hyphen
ENCODING 45
SWIDTH 500 0
DWIDTH 7 0
BBX 5 2 1 3
BITMAP
F8
F8
ENDCHAR
STARTCHAR period
ENCODING 46
SWIDTH 250 0
DWIDTH 4 0
BBX 2 2 1 0
BITMAP
C0
C0
ENDCHAR
STARTCHAR slash
ENCODING 47
SWIDTH 437 0
DWIDTH 6 0
BBX 5 11 0 0
BITMAP
18
18
18
10
30
30
30
70
E0
C0
C0
ENDCHAR
STARTCHAR zero
ENCODING 48
SWIDTH 562 0
DWIDTH 8 0
BBX 6 10 1 0
BITMAP
78
FC
FC
FC
FC
EC
EC
EC
FC
78
ENDCHAR
STARTCHAR one
ENCODING 49
SWIDTH 562 0
DWIDTH 8 0
BBX 5 10 2 0
BITMAP
60
60
E0
E0
60
60
60
60
F8
F8
ENDCHAR
STARTCHAR two
ENCODING 50
SWIDTH 500 0
DWIDTH 7 0
BBX 5 10 1 0
BITMAP
70
F8
D8
18
18
38
70
E0
F8
F8
ENDCHAR
STARTCHAR three
ENCODING 51
SWIDTH 500 0
DWIDTH 7 0
BBX 5 10 1 0
BITMAP
70
F8
D8
18
38
30
38
D8
F8
70
ENDCHAR
STARTCHAR four
ENCODING 52
SWIDTH 562 0
DWIDTH 8 0
BBX 6 10 1 0
BITMAP
18
38
38
78
F8
D8
FC
18
18
18
ENDCHAR
STARTCHAR five
ENCODING 53
SWIDTH 500 0
DWIDTH 7 0
BBX 5 10 1 0
BITMAP
F8
F8
C0
C0
F0
F8
18
D8
F8
70
ENDCHAR
STARTCHAR six
ENCODING 54
SWIDTH 500 0
DWIDTH 7 0
BBX 5 10 1 0
BITMAP
70
F8
D8
C0
F0
F8
D8
D8
F8
70
ENDCHAR
STARTCHAR seven
ENCODING 55
SWIDTH 562 0
DWIDTH 8 0
BBX 6 10 1 0
BITMAP
FC
FC
0C
1C
38
30
20
20
20
20
ENDCHAR
STARTCHAR eight
ENCODING 56
SWIDTH 500 0
DWIDTH 7 0
BBX 5 10 1 0
BITMAP
70
F8
D8
D8
70
F8
D8
D8
F8
70
ENDCHAR
STARTCHAR nine
ENCODING 57
SWIDTH 500 0
DWIDTH 7 0
BBX 5 10 1 0
BITMAP
70
F8
D8
D8
F8
78
18
D8
F8
70
ENDCHAR
STARTCHAR colon
ENCODING 58
SWIDTH 250 0
DWIDTH 4 0
BBX 2 7 1 0
BITMAP
C0
C0
00
00
00
C0
C0
ENDCHAR
STARTCHAR semicolon
ENCODING 59
SWIDTH 250 0
DWIDTH 4 0
BBX 2 9 1 -2
BITMAP
C0
C0
00
00
00
C0
C0
40
80
ENDCHAR
STARTCHAR less
ENCODING 60
SWIDTH 687 0
DWIDTH 10 0
BBX 9 7 0 1
BITMAP
0780
1F80
3E00
F000
FE00
1F80
0780
ENDCHAR
STARTCHAR equal
ENCODING 61
SWIDTH 500 0
DWIDTH 7 0
BBX 5 5 1 2
BITMAP
F8
F8
00
F8
F8
ENDCHAR
STARTCHAR greater
ENCODING 62
SWIDTH 687 0
DWIDTH 10 0
BBX 9 7 0 1
BITMAP
F000
F800
3E00
0F80
3F80
F800
F000
ENDCHAR
STARTCHAR question
ENCODING 63
SWIDTH 500 0
DWIDTH 7 0
BBX 5 10 1 0
BITMAP
70
F8
D8
18
38
30
20
00
20
20
ENDCHAR
STARTCHAR at
ENCODING 64
SWIDTH 875 0
DWIDTH 12 0
BBX 10 13 1 -3
BITMAP
3F80
7FC0
E0C0
DE40
FF40
F340
F340
F340
FFC0
DFC0
E000
7FC0
3FC0
ENDCHAR
STARTCHAR A
ENCODING 65
SWIDTH 625 0
DWIDTH 9 0
BBX 7 10 1 0
BITMAP
38
7C
EE
C6
C6
FE
FE
C6
C6
C6
ENDCHAR
STARTCHAR B
ENCODING 66
SWIDTH 625 0
DWIDTH 9 0
BBX 7 10 1 0
BITMAP
FC
FE
C6
C6
FE
FC
C6
C6
FE
FC
ENDCHAR
STARTCHAR C
ENCODING 67
SWIDTH 625 0
DWIDTH 9 0
BBX 6 10 2 0
BITMAP
78
FC
CC
C0
C0
C0
C0
CC
FC
78
ENDCHAR
STARTCHAR D
ENCODING 68
SWIDTH 687 0
DWIDTH 10 0
BBX 7 10 2 0
BITMAP
FC
FE
C6
C6
C6
C6
C6
C6
FE
FC
ENDCHAR
STARTCHAR E
ENCODING 69
SWIDTH 562 0
DWIDTH 8 0
BBX 5 10 2 0
BITMAP
F8
F8
C0
C0
F8
F8
C0
C0
F8
F8
ENDCHAR
STARTCHAR F
ENCODING 70
SWIDTH 562 0
DWIDTH 8 0
BBX 5 10 2 0
BITMAP
F8
F8
C0
C0
F8
F8
C0
C0
C0
C0
ENDCHAR
STARTCHAR G
ENCODING 71
SWIDTH 625 0
DWIDTH 9 0
BBX 6 10 2 0
BITMAP
78
FC
CC
C0
C0
DC
DC
CC
FC
78
ENDCHAR
STARTCHAR H
ENCODING 72
SWIDTH 625 0
DWIDTH 9 0
BBX 7 10 1 0
BITMAP
C6
C6
C6
C6
FE
FE
C6
C6
C6
C6
ENDCHAR
STARTCHAR I
ENCODING 73
SWIDTH 375 0
DWIDTH 5 0
BBX 3 10 1 0
BITMAP
E0
E0
60
60
60
60
60
60
E0
E0
ENDCHAR
STARTCHAR J
ENCODING 74
SWIDTH 500 0
DWIDTH 7 0
BBX 6 10 0 0
BITMAP
1C
1C
18
18
18
18
18
D8
F8
70
ENDCHAR
STARTCHAR K
ENCODING 75
SWIDTH 625 0
DWIDTH 9 0
BBX 7 10 1 0
BITMAP
C6
CE
DC
F8
F0
E0
F8
DC
CE
C6
ENDCHAR
STARTCHAR L
ENCODING 76
SWIDTH 500 0
DWIDTH 7 0
BBX 5 10 1 0
BITMAP
C0
C0
C0
C0
C0
C0
C0
C0
F8
F8
ENDCHAR
STARTCHAR M
ENCODING 77
SWIDTH 750 0
DWIDTH 11 0
BBX 9 10 1 0
BITMAP
C180
E380
E780
FF80
FD80
D980
C180
C180
C180
C180
ENDCHAR
STARTCHAR N
ENCODING 78
SWIDTH 687 0
DWIDTH 10 0
BBX 8 10 1 0
BITMAP
C3
E3
E3
F3
FB
FB
FF
CF
C7
C3
ENDCHAR
STARTCHAR O
ENCODING 79
SWIDTH 687 0
DWIDTH 10 0
BBX 7 10 2 0
BITMAP
7C
FE
C6
C6
C6
C6
C6
C6
FE
7C
ENDCHAR
STARTCHAR P
ENCODING 80
SWIDTH 562 0
DWIDTH 8 0
BBX 6 10 1 0
BITMAP
F8
FC
CC
CC
CC
FC
F8
C0
C0
C0
ENDCHAR
STARTCHAR Q
ENCODING 81
SWIDTH 750 0
DWIDTH 11 0
BBX 8 10 2 0
BITMAP
7C
FE
C6
C6
C6
C6
C6
CE
FE
7F
ENDCHAR
STARTCHAR R
ENCODING 82
SWIDTH 625 0
DWIDTH 9 0
BBX 7 10 1 0
BITMAP
FC
FE
C6
C6
FE
FC
C6
C6
C6
C6
ENDCHAR
STARTCHAR S
ENCODING 83
SWIDTH 625 0
DWIDTH 9 0
BBX 7 10 1 0
BITMAP
7C
FE
C6
C0
FC
7E
06
C6
FE
7C
ENDCHAR
STARTCHAR T
ENCODING 84
SWIDTH 625 0
DWIDTH 9 0
BBX 7 10 1 0
BITMAP
FE
FE
30
30
30
30
30
30
30
30
ENDCHAR
STARTCHAR U
ENCODING 85
SWIDTH 687 0
DWIDTH 10 0
BBX 7 10 2 0
BITMAP
C6
C6
C6
C6
C6
C6
C6
C6
FE
7C
ENDCHAR
STARTCHAR V
ENCODING 86
SWIDTH 687 0
DWIDTH 10 0
BBX 7 10 2 0
BITMAP
C6
C6
C6
C6
C6
C6
CE
7C
78
30
ENDCHAR
STARTCHAR W
ENCODING 87
SWIDTH 750 0
DWIDTH 11 0
BBX 9 10 1 0
BITMAP
C180
C180
C180
D980
D980
D980
D980
FF80
7F00
2600
ENDCHAR
STARTCHAR X
ENCODING 88
SWIDTH 625 0
DWIDTH 9 0
BBX 7 10 1 0
BITMAP
C6
EE
6C
7C
38
30
7C
6C
EE
C6
ENDCHAR
STARTCHAR Y
ENCODING 89
SWIDTH 625 0
DWIDTH 9 0
BBX 7 10 1 0
BITMAP
C6
EE
6C
7C
38
30
30
30
30
30
ENDCHAR
STARTCHAR Z
ENCODING 90
SWIDTH 687 0
DWIDTH 10 0
BBX 9 10 0 0
BITMAP
FF80
FF80
0700
0E00
1C00
1800
3800
7000
FF80
FF80
ENDCHAR
STARTCHAR bracketleft
ENCODING 91
SWIDTH 312 0
DWIDTH 4 0
BBX 3 11 1 -1
BITMAP
E0
E0
C0
C0
C0
C0
C0
C0
C0
E0
E0
ENDCHAR
STARTCHAR backslash
ENCODING 92
SWIDTH 437 0
DWIDTH 6 0
BBX 5 11 0 0
BITMAP
C0
C0
E0
60
70
30
30
30
18
18
18
ENDCHAR
STARTCHAR bracketright
ENCODING 93
SWIDTH 375 0
DWIDTH 5 0
BBX 2 11 2 -1
BITMAP
C0
C0
40
40
40
40
40
40
40
C0
C0
ENDCHAR
STARTCHAR asciicircum
ENCODING 94
SWIDTH 500 0
DWIDTH 7 0
BBX 6 5 0 4
BITMAP
10
30
78
FC
CC
ENDCHAR
STARTCHAR underscore
ENCODING 95
SWIDTH 562 0
DWIDTH 8 0
BBX 7 2 0 -3
BITMAP
FE
FE
ENDCHAR
STARTCHAR grave
ENCODING 96
SWIDTH 312 0
DWIDTH 4 0
BBX 3 3 1 7
BITMAP
C0
E0
60
ENDCHAR
STARTCHAR a
ENCODING 97
SWIDTH 500 0
DWIDTH 7 0
BBX 5 7 1 0
BITMAP
70
F8
D8
D8
D8
F8
78
ENDCHAR
STARTCHAR b
ENCODING 98
SWIDTH 562 0
DWIDTH 8 0
BBX 6 10 1 0
BITMAP
C0
C0
C0
F8
FC
EC
CC
EC
FC
F8
ENDCHAR
STARTCHAR c
ENCODING 99
SWIDTH 500 0
DWIDTH 7 0
BBX 5 7 1 0
BITMAP
70
F8
D8
C0
D8
F8
70
ENDCHAR
STARTCHAR d
ENCODING 100
SWIDTH 562 0
DWIDTH 8 0
BBX 6 10 1 0
BITMAP
0C
0C
0C
6C
FC
DC
CC
DC
FC
6C
ENDCHAR
STARTCHAR e
ENCODING 101
SWIDTH 500 0
DWIDTH 7 0
BBX 5 7 1 0
BITMAP
70
F8
D8
F8
D8
F8
70
ENDCHAR
STARTCHAR f
ENCODING 102
SWIDTH 375 0
DWIDTH 5 0
BBX 3 10 1 0
BITMAP
20
60
60
E0
E0
60
60
60
60
60
ENDCHAR
STARTCHAR g
ENCODING 103
SWIDTH 562 0
DWIDTH 8 0
BBX 6 10 1 -3
BITMAP
6C
FC
DC
CC
DC
FC
6C
0C
FC
F8
ENDCHAR
STARTCHAR h
ENCODING 104
SWIDTH 562 0
DWIDTH 8 0
BBX 6 10 1 0
BITMAP
C0
C0
C0
F8
FC
EC
CC
CC
CC
CC
ENDCHAR
STARTCHAR i
ENCODING 105
SWIDTH 250 0
DWIDTH 4 0
BBX 2 10 1 0
BITMAP
C0
C0
00
C0
C0
C0
C0
C0
C0
C0
ENDCHAR
STARTCHAR j
ENCODING 106
SWIDTH 250 0
DWIDTH 4 0
BBX 4 13 -1 -3
BITMAP
30
30
00
30
30
30
30
30
30
30
30
F0
E0
ENDCHAR
STARTCHAR k
ENCODING 107
SWIDTH 500 0
DWIDTH 7 0
BBX 6 10 0 0
BITMAP
C0
C0
C0
CC
DC
D8
F0
D8
DC
CC
ENDCHAR
STARTCHAR l
ENCODING 108
SWIDTH 250 0
DWIDTH 4 0
BBX 2 10 1 0
BITMAP
C0
C0
C0
C0
C0
C0
C0
C0
C0
C0
ENDCHAR
STARTCHAR m
ENCODING 109
SWIDTH 750 0
DWIDTH 11 0
BBX 9 7 1 0
BITMAP
FF00
FF80
D980
D980
D980
D980
D980
ENDCHAR
STARTCHAR n
ENCODING 110
SWIDTH 500 0
DWIDTH 7 0
BBX 5 7 1 0
BITMAP
F0
F8
D8
D8
D8
D8
D8
ENDCHAR
STARTCHAR o
ENCODING 111
SWIDTH 500 0
DWIDTH 7 0
BBX 5 7 1 0
BITMAP
70
F8
D8
D8
D8
F8
70
ENDCHAR
STARTCHAR p
ENCODING 112
SWIDTH 562 0
DWIDTH 8 0
BBX 6 10 1 -3
BITMAP
F8
FC
EC
CC
EC
FC
F8
C0
C0
C0
ENDCHAR
STARTCHAR q
ENCODING 113
SWIDTH 562 0
DWIDTH 8 0
BBX 6 10 1 -3
BITMAP
6C
FC
DC
CC
DC
FC
6C
0C
0C
0C
ENDCHAR
STARTCHAR r
ENCODING 114
SWIDTH 500 0
DWIDTH 7 0
BBX 5 7 1 0
BITMAP
F0
F8
D8
C0
C0
C0
C0
ENDCHAR
STARTCHAR s
ENCODING 115
SWIDTH 500 0
DWIDTH 7 0
BBX 5 7 1 0
BITMAP
78
F8
C0
F8
18
F8
F0
ENDCHAR
STARTCHAR t
ENCODING 116
SWIDTH 312 0
DWIDTH 4 0
BBX 4 10 0 0
BITMAP
60
60
60
F0
F0
60
60
60
70
30
ENDCHAR
STARTCHAR u
ENCODING 117
SWIDTH 500 0
DWIDTH 7 0
BBX 5 7 1 0
BITMAP
D8
D8
D8
D8
D8
F8
78
ENDCHAR
STARTCHAR v
ENCODING 118
SWIDTH 500 0
DWIDTH 7 0
BBX 5 7 1 0
BITMAP
D8
D8
D8
D8
F8
70
20
ENDCHAR
STARTCHAR w
ENCODING 119
SWIDTH 750 0
DWIDTH 11 0
BBX 9 7 1 0
BITMAP
D980
D980
D980
D980
D980
FF80
7F80
ENDCHAR
STARTCHAR x
ENCODING 120
SWIDTH 500 0
DWIDTH 7 0
BBX 5 7 1 0
BITMAP
D8
F8
70
20
70
F8
D8
ENDCHAR
STARTCHAR y
ENCODING 121
SWIDTH 500 0
DWIDTH 7 0
BBX 5 10 1 -3
BITMAP
D8
D8
D8
D8
D8
F8
70
30
E0
E0
ENDCHAR
STARTCHAR z
ENCODING 122
SWIDTH 500 0
DWIDTH 7 0
BBX 5 7 1 0
BITMAP
F8
F8
30
20
60
F8
F8
ENDCHAR
STARTCHAR braceleft
ENCODING 123
SWIDTH 375 0
DWIDTH 5 0
BBX 4 11 0 -1
BITMAP
30
30
60
60
60
C0
E0
60
60
30
30
ENDCHAR
STARTCHAR bar
ENCODING 124
SWIDTH 250 0
DWIDTH 4 0
BBX 2 12 1 -2
BITMAP
C0
C0
C0
C0
C0
C0
C0
C0
C0
C0
C0
C0
ENDCHAR
STARTCHAR braceright
ENCODING 125
SWIDTH 375 0
DWIDTH 5 0
BBX 4 11 0 -1
BITMAP
E0
E0
30
30
30
10
30
30
30
E0
E0
ENDCHAR
STARTCHAR asciitilde
ENCODING 126
SWIDTH 625 0
DWIDTH 9 0
BBX 7 3 1 3
BITMAP
66
FE
DC
ENDCHAR
STARTCHAR uni00A0
ENCODING 160
SWIDTH 312 0
DWIDTH 4 0
BBX 1 1 0 0
BITMAP
00
ENDCHAR
STARTCHAR exclamdown
ENCODING 161
SWIDTH 250 0
DWIDTH 4 0
BBX 2 10 1 -3
BITMAP
C0
C0
00
C0
C0
C0
C0
C0
C0
C0
ENDCHAR
STARTCHAR cent
ENCODING 162
SWIDTH 500 0
DWIDTH 7 0
BBX 5 11 1 -2
BITMAP
20
20
70
F8
F8
E0
F8
F8
70
20
20
ENDCHAR
STARTCHAR sterling
ENCODING 163
SWIDTH 562 0
DWIDTH 8 0
BBX 7 11 0 0
BITMAP
3C
7E
E6
E0
60
F8
F8
60
78
FE
EE
ENDCHAR
STARTCHAR currency
ENCODING 164
SWIDTH 625 0
DWIDTH 9 0
BBX 8 8 0 1
BITMAP
C3
FF
7E
66
66
7E
FF
C3
ENDCHAR
STARTCHAR yen
ENCODING 165
SWIDTH 625 0
DWIDTH 9 0
BBX 7 10 1 0
BITMAP
C6
EE
6C
7C
3C
FE
FE
FE
FE
30
ENDCHAR
STARTCHAR brokenbar
ENCODING 166
SWIDTH 250 0
DWIDTH 4 0
BBX 2 12 1 -2
BITMAP
C0
C0
C0
C0
C0
C0
00
C0
C0
C0
C0
C0
ENDCHAR
STARTCHAR section
ENCODING 167
SWIDTH 562 0
DWIDTH 8 0
BBX 6 15 1 -4
BITMAP
78
F8
C0
E0
60
70
F8
FC
7C
38
38
1C
0C
7C
78
ENDCHAR
STARTCHAR dieresis
ENCODING 168
SWIDTH 375 0
DWIDTH 5 0
BBX 4 2 0 9
BITMAP
D0
D0
ENDCHAR
STARTCHAR copyright
ENCODING 169
SWIDTH 750 0
DWIDTH 11 0
BBX 11 13 -1 -2
BITMAP
3F80
7FC0
E0E0
CE60
DF60
DB60
D860
DB60
DF60
CE60
E0E0
7FC0
3F80
ENDCHAR
STARTCHAR ordfeminine
ENCODING 170
SWIDTH 437 0
DWIDTH 6 0
BBX 5 7 0 4
BITMAP
70
F8
D8
D8
D8
F8
78
ENDCHAR
STARTCHAR guillemotleft
ENCODING 171
SWIDTH 562 0
DWIDTH 8 0
BBX 7 5 0 1
BITMAP
36
7E
FC
7E
36
ENDCHAR
STARTCHAR logicalnot
ENCODING 172
SWIDTH 625 0
DWIDTH 9 0
BBX 7 4 1 3
BITMAP
FE
FE
06
06
ENDCHAR
STARTCHAR registered
ENCODING 174
SWIDTH 750 0
DWIDTH 11 0
BBX 11 13 -1 -2
BITMAP
3F80
7FC0
E0E0
DE60
DF60
DB60
DF60
DF60
DB60
DB60
E0E0
7FC0
3F80
ENDCHAR
STARTCHAR macron
ENCODING 175
SWIDTH 437 0
DWIDTH 6 0
BBX 3 1 2 9
BITMAP
E0
ENDCHAR
STARTCHAR degree
ENCODING 176
SWIDTH 437 0
DWIDTH 6 0
BBX 5 6 0 5
BITMAP
30
70
D8
D8
70
30
ENDCHAR
STARTCHAR plusminus
ENCODING 177
SWIDTH 500 0
DWIDTH 7 0
BBX 5 7 1 0
BITMAP
20
20
F8
F8
20
F8
F8
ENDCHAR
STARTCHAR uni00B2
ENCODING 178
SWIDTH 375 0
DWIDTH 5 0
BBX 4 7 0 4
BITMAP
70
F0
D0
30
70
F0
F0
ENDCHAR
STARTCHAR uni00B3
ENCODING 179
SWIDTH 375 0
DWIDTH 5 0
BBX 4 7 0 4
BITMAP
70
F0
D0
30
D0
F0
70
ENDCHAR
STARTCHAR acute
ENCODING 180
SWIDTH 312 0
DWIDTH 4 0
BBX 3 3 1 7
BITMAP
60
E0
C0
ENDCHAR
STARTCHAR uni00B5
ENCODING 181
SWIDTH 500 0
DWIDTH 7 0
BBX 5 10 1 -3
BITMAP
D8
D8
D8
D8
D8
F8
F8
C0
C0
C0
ENDCHAR
STARTCHAR paragraph
ENCODING 182
SWIDTH 562 0
DWIDTH 8 0
BBX 6 12 1 -2
BITMAP
7C
FC
EC
EC
EC
FC
7C
2C
2C
2C
2C
2C
ENDCHAR
STARTCHAR periodcentered
ENCODING 183
SWIDTH 250 0
DWIDTH 4 0
BBX 2 2 1 4
BITMAP
C0
C0
ENDCHAR
STARTCHAR cedilla
ENCODING 184
SWIDTH 312 0
DWIDTH 4 0
BBX 3 5 1 -4
BITMAP
60
E0
60
E0
C0
ENDCHAR
STARTCHAR uni00B9
ENCODING 185
SWIDTH 375 0
DWIDTH 5 0
BBX 3 6 1 5
BITMAP
60
E0
E0
60
E0
E0
ENDCHAR
STARTCHAR ordmasculine
ENCODING 186
SWIDTH 437 0
DWIDTH 6 0
BBX 5 7 0 4
BITMAP
30
70
D8
D8
D8
70
30
ENDCHAR
STARTCHAR guillemotright
ENCODING 187
SWIDTH 562 0
DWIDTH 8 0
BBX 7 5 0 1
BITMAP
D8
FC
7E
FC
D8
ENDCHAR
STARTCHAR onequarter
ENCODING 188
SWIDTH 937 0
DWIDTH 13 0
BBX 11 11 1 0
BITMAP
6000
E180
E380
6700
E600
EC00
1C40
39C0
33E0
63E0
6040
ENDCHAR
STARTCHAR onehalf
ENCODING 189
SWIDTH 875 0
DWIDTH 12 0
BBX 10 11 1 0
BITMAP
6000
E180
E380
6700
E600
EDC0
1FC0
3BC0
31C0
63C0
63C0
ENDCHAR
STARTCHAR threequarters
ENCODING 190
SWIDTH 875 0
DWIDTH 12 0
BBX 11 11 0 0
BITMAP
7000
F0C0
D1C0
3380
D300
F600
7E60
1DE0
1BE0
33E0
3060
ENDCHAR
STARTCHAR questiondown
ENCODING 191
SWIDTH 500 0
DWIDTH 7 0
BBX 5 10 1 -3
BITMAP
20
20
00
20
60
E0
C0
D8
F8
70
ENDCHAR
STARTCHAR Agrave
ENCODING 192
SWIDTH 625 0
DWIDTH 9 0
BBX 7 11 1 0
BITMAP
20
10
38
7C
EE
C6
FE
FE
C6
C6
C6
ENDCHAR
STARTCHAR Aacute
ENCODING 193
SWIDTH 625 0
DWIDTH 9 0
BBX 7 11 1 0
BITMAP
10
20
38
7C
EE
C6
FE
FE
C6
C6
C6
ENDCHAR
STARTCHAR Acircumflex
ENCODING 194
SWIDTH 625 0
DWIDTH 9 0
BBX 7 11 1 0
BITMAP
30
28
38
7C
EE
C6
FE
FE
C6
C6
C6
ENDCHAR
STARTCHAR Atilde
ENCODING 195
SWIDTH 625 0
DWIDTH 9 0
BBX 7 11 1 0
BITMAP
28
30
38
7C
EE
C6
FE
FE
C6
C6
C6
ENDCHAR
STARTCHAR Adieresis
ENCODING 196
SWIDTH 625 0
DWIDTH 9 0
BBX 7 11 1 0
BITMAP
28
00
38
7C
EE
C6
FE
FE
C6
C6
C6
ENDCHAR
STARTCHAR Aring
ENCODING 197
SWIDTH 625 0
DWIDTH 9 0
BBX 7 11 1 0
BITMAP
38
30
38
7C
EE
C6
FE
FE
C6
C6
C6
ENDCHAR
STARTCHAR AE
ENCODING 198
SWIDTH 875 0
DWIDTH 12 0
BBX 11 10 0 0
BITMAP
0FE0
1FE0
1B00
1300
13E0
33E0
7F00
6300
C3E0
C3E0
ENDCHAR
STARTCHAR Ccedilla
ENCODING 199
SWIDTH 625 0
DWIDTH 9 0
BBX 6 14 2 -4
BITMAP
78
FC
CC
C0
C0
C0
C0
CC
FC
78
70
30
70
60
ENDCHAR
STARTCHAR Egrave
ENCODING 200
SWIDTH 562 0
DWIDTH 8 0
BBX 5 11 2 0
BITMAP
40
20
F8
F8
C0
C0
F8
F8
C0
F8
F8
ENDCHAR
STARTCHAR Eacute
ENCODING 201
SWIDTH 562 0
DWIDTH 8 0
BBX 5 11 2 0
BITMAP
20
40
F8
F8
C0
C0
F8
F8
C0
F8
F8
ENDCHAR
STARTCHAR Ecircumflex
ENCODING 202
SWIDTH 562 0
DWIDTH 8 0
BBX 5 11 2 0
BITMAP
60
50
F8
F8
C0
C0
F8
F8
C0
F8
F8
ENDCHAR
STARTCHAR Edieresis
ENCODING 203
SWIDTH 562 0
DWIDTH 8 0
BBX 5 11 2 0
BITMAP
50
00
F8
F8
C0
C0
F8
F8
C0
F8
F8
ENDCHAR
STARTCHAR Igrave
ENCODING 204
SWIDTH 375 0
DWIDTH 5 0
BBX 3 11 1 0
BITMAP
40
20
E0
E0
60
60
60
60
60
E0
E0
ENDCHAR
STARTCHAR Iacute
ENCODING 205
SWIDTH 375 0
DWIDTH 5 0
BBX 3 11 1 0
BITMAP
20
40
E0
E0
60
60
60
60
60
E0
E0
ENDCHAR
STARTCHAR Icircumflex
ENCODING 206
SWIDTH 375 0
DWIDTH 5 0
BBX 3 11 1 0
BITMAP
60
A0
E0
E0
60
60
60
60
60
E0
E0
ENDCHAR
STARTCHAR Idieresis
ENCODING 207
SWIDTH 375 0
DWIDTH 5 0
BBX 3 11 1 0
BITMAP
A0
00
E0
E0
60
60
60
60
60
E0
E0
ENDCHAR
STARTCHAR Eth
ENCODING 208
SWIDTH 687 0
DWIDTH 10 0
BBX 9 10 0 0
BITMAP
3F00
3F80
3180
3180
F980
F980
3180
3180
3F80
3F00
ENDCHAR
STARTCHAR Ntilde
ENCODING 209
SWIDTH 687 0
DWIDTH 10 0
BBX 8 11 1 0
BITMAP
24
58
C3
E3
E3
F3
FB
FF
CF
C7
C3
ENDCHAR
STARTCHAR Ograve
ENCODING 210
SWIDTH 687 0
DWIDTH 10 0
BBX 7 11 2 0
BITMAP
20
10
7C
FE
C6
C6
C6
C6
C6
FE
7C
ENDCHAR
STARTCHAR Oacute
ENCODING 211
SWIDTH 687 0
DWIDTH 10 0
BBX 7 11 2 0
BITMAP
10
20
7C
FE
C6
C6
C6
C6
C6
FE
7C
ENDCHAR
STARTCHAR Ocircumflex
ENCODING 212
SWIDTH 687 0
DWIDTH 10 0
BBX 7 11 2 0
BITMAP
30
48
7C
FE
C6
C6
C6
C6
C6
FE
7C
ENDCHAR
STARTCHAR Otilde
ENCODING 213
SWIDTH 687 0
DWIDTH 10 0
BBX 7 11 2 0
BITMAP
28
50
7C
FE
C6
C6
C6
C6
C6
FE
7C
ENDCHAR
STARTCHAR Odieresis
ENCODING 214
SWIDTH 687 0
DWIDTH 10 0
BBX 7 11 2 0
BITMAP
48
00
7C
FE
C6
C6
C6
C6
C6
FE
7C
ENDCHAR
STARTCHAR multiply
ENCODING 215
SWIDTH 500 0
DWIDTH 7 0
BBX 5 5 1 2
BITMAP
D8
F8
70
F8
D8
ENDCHAR
STARTCHAR Oslash
ENCODING 216
SWIDTH 812 0
DWIDTH 11 0
BBX 13 13 -2 -2
BITMAP
1FD8
3FF8
7070
60F0
61F0
63B0
6730
6E30
7C30
7830
7070
FFE0
DFC0
ENDCHAR
STARTCHAR Ugrave
ENCODING 217
SWIDTH 687 0
DWIDTH 10 0
BBX 7 11 2 0
BITMAP
20
10
C6
C6
C6
C6
C6
C6
C6
FE
7C
ENDCHAR
STARTCHAR Uacute
ENCODING 218
SWIDTH 687 0
DWIDTH 10 0
BBX 7 11 2 0
BITMAP
10
20
C6
C6
C6
C6
C6
C6
C6
FE
7C
ENDCHAR
STARTCHAR Ucircumflex
ENCODING 219
SWIDTH 687 0
DWIDTH 10 0
BBX 7 11 2 0
BITMAP
30
48
C6
C6
C6
C6
C6
C6
C6
FE
7C
ENDCHAR
STARTCHAR Udieresis
ENCODING 220
SWIDTH 687 0
DWIDTH 10 0
BBX 7 11 2 0
BITMAP
48
00
C6
C6
C6
C6
C6
C6
C6
FE
7C
ENDCHAR
STARTCHAR Yacute
ENCODING 221
SWIDTH 625 0
DWIDTH 9 0
BBX 7 11 1 0
BITMAP
10
20
C6
EE
6C
7C
38
30
30
30
30
ENDCHAR
STARTCHAR Thorn
ENCODING 222
SWIDTH 625 0
DWIDTH 9 0
BBX 7 10 1 0
BITMAP
C0
C0
F8
FC
CE
C6
FE
F8
C0
C0
ENDCHAR
STARTCHAR germandbls
ENCODING 223
SWIDTH 625 0
DWIDTH 9 0
BBX 7 10 1 0
BITMAP
78
FC
CC
CC
DC
D8
DE
E6
FE
FC
ENDCHAR
STARTCHAR agrave
ENCODING 224
SWIDTH 500 0
DWIDTH 7 0
BBX 5 10 1 0
BITMAP
20
20
00
70
F8
D8
D8
D8
F8
78
ENDCHAR
STARTCHAR aacute
ENCODING 225
SWIDTH 500 0
DWIDTH 7 0
BBX 5 10 1 0
BITMAP
20
20
00
70
F8
D8
D8
D8
F8
78
ENDCHAR
STARTCHAR acircumflex
ENCODING 226
SWIDTH 500 0
DWIDTH 7 0
BBX 5 10 1 0
BITMAP
20
50
00
70
F8
D8
D8
D8
F8
78
ENDCHAR
STARTCHAR atilde
ENCODING 227
SWIDTH 500 0
DWIDTH 7 0
BBX 5 10 1 0
BITMAP
30
60
00
70
F8
D8
D8
D8
F8
78
ENDCHAR
STARTCHAR adieresis
ENCODING 228
SWIDTH 500 0
DWIDTH 7 0
BBX 5 9 1 0
BITMAP
50
00
70
F8
D8
D8
D8
F8
78
ENDCHAR
STARTCHAR aring
ENCODING 229
SWIDTH 500 0
DWIDTH 7 0
BBX 5 11 1 0
BITMAP
20
50
20
00
70
F8
D8
D8
D8
F8
78
ENDCHAR
STARTCHAR ae
ENCODING 230
SWIDTH 812 0
DWIDTH 11 0
BBX 10 7 1 0
BITMAP
7380
FFC0
DCC0
DFC0
DCC0
FFC0
7F80
ENDCHAR
STARTCHAR ccedilla
ENCODING 231
SWIDTH 500 0
DWIDTH 7 0
BBX 5 11 1 -4
BITMAP
70
F8
D8
C0
D8
F8
70
30
30
30
20
ENDCHAR
STARTCHAR egrave
ENCODING 232
SWIDTH 500 0
DWIDTH 7 0
BBX 5 10 1 0
BITMAP
20
20
00
70
F8
D8
F8
D8
F8
70
ENDCHAR
STARTCHAR eacute
ENCODING 233
SWIDTH 500 0
DWIDTH 7 0
BBX 5 10 1 0
BITMAP
20
20
00
70
F8
D8
F8
D8
F8
70
ENDCHAR
STARTCHAR ecircumflex
ENCODING 234
SWIDTH 500 0
DWIDTH 7 0
BBX 5 10 1 0
BITMAP
20
50
00
70
F8
D8
F8
D8
F8
70
ENDCHAR
STARTCHAR edieresis
ENCODING 235
SWIDTH 500 0
DWIDTH 7 0
BBX 5 9 1 0
BITMAP
50
00
70
F8
D8
F8
D8
F8
70
ENDCHAR
STARTCHAR igrave
ENCODING 236
SWIDTH 250 0
DWIDTH 4 0
BBX 2 10 1 0
BITMAP
80
40
00
C0
C0
C0
C0
C0
C0
C0
ENDCHAR
STARTCHAR iacute
ENCODING 237
SWIDTH 250 0
DWIDTH 4 0
BBX 2 10 1 0
BITMAP
40
80
00
C0
C0
C0
C0
C0
C0
C0
ENDCHAR
STARTCHAR icircumflex
ENCODING 238
SWIDTH 312 0
DWIDTH 4 0
BBX 4 10 0 0
BITMAP
60
90
00
60
60
60
60
60
60
60
ENDCHAR
STARTCHAR idieresis
ENCODING 239
SWIDTH 312 0
DWIDTH 4 0
BBX 4 9 0 0
BITMAP
90
00
60
60
60
60
60
60
60
ENDCHAR
STARTCHAR eth
ENCODING 240
SWIDTH 562 0
DWIDTH 8 0
BBX 6 11 1 0
BITMAP
2C
7C
F8
D8
78
F8
D8
D8
D8
F8
70
ENDCHAR
STARTCHAR ntilde
ENCODING 241
SWIDTH 500 0
DWIDTH 7 0
BBX 5 10 1 0
BITMAP
30
60
00
F0
F8
D8
D8
D8
D8
D8
ENDCHAR
STARTCHAR ograve
ENCODING 242
SWIDTH 500 0
DWIDTH 7 0
BBX 5 10 1 0
BITMAP
20
20
00
70
F8
D8
D8
D8
F8
70
ENDCHAR
STARTCHAR oacute
ENCODING 243
SWIDTH 500 0
DWIDTH 7 0
BBX 5 10 1 0
BITMAP
20
20
00
70
F8
D8
D8
D8
F8
70
ENDCHAR
STARTCHAR ocircumflex
ENCODING 244
SWIDTH 500 0
DWIDTH 7 0
BBX 5 10 1 0
BITMAP
20
50
00
70
F8
D8
D8
D8
F8
70
ENDCHAR
STARTCHAR otilde
ENCODING 245
SWIDTH 500 0
DWIDTH 7 0
BBX 5 10 1 0
BITMAP
30
60
00
70
F8
D8
D8
D8
F8
70
ENDCHAR
STARTCHAR odieresis
ENCODING 246
SWIDTH 500 0
DWIDTH 7 0
BBX 5 9 1 0
BITMAP
50
00
70
F8
D8
D8
D8
F8
70
ENDCHAR
STARTCHAR divide
ENCODING 247
SWIDTH 500 0
DWIDTH 7 0
BBX 5 5 1 2
BITMAP
20
00
F8
F8
20
ENDCHAR
STARTCHAR oslash
ENCODING 248
SWIDTH 687 0
DWIDTH 10 0
BBX 9 9 0 -1
BITMAP
0180
1F80
3F00
6F00
7F00
7300
7E00
FC00
C000
ENDCHAR
STARTCHAR ugrave
ENCODING 249
SWIDTH 500 0
DWIDTH 7 0
BBX 5 10 1 0
BITMAP
20
20
00
D8
D8
D8
D8
D8
F8
78
ENDCHAR
STARTCHAR uacute
ENCODING 250
SWIDTH 500 0
DWIDTH 7 0
BBX 5 10 1 0
BITMAP
20
20
00
D8
D8
D8
D8
D8
F8
78
ENDCHAR
STARTCHAR ucircumflex
ENCODING 251
SWIDTH 500 0
DWIDTH 7 0
BBX 5 10 1 0
BITMAP
20
50
00
D8
D8
D8
D8
D8
F8
78
ENDCHAR
STARTCHAR udieresis
ENCODING 252
SWIDTH 500 0
DWIDTH 7 0
BBX 5 9 1 0
BITMAP
50
00
D8
D8
D8
D8
D8
F8
78
ENDCHAR
STARTCHAR yacute
ENCODING 253
SWIDTH 500 0
DWIDTH 7 0
BBX 5 13 1 -3
BITMAP
20
20
00
D8
D8
D8
D8
D8
F8
70
30
E0
E0
ENDCHAR
STARTCHAR thorn
ENCODING 254
SWIDTH 625 0
DWIDTH 9 0
BBX 7 13 1 -3
BITMAP
C0
C0
C0
C0
C0
F8
FE
C6
CE
FC
F8
C0
C0
ENDCHAR
STARTCHAR ydieresis
ENCODING 255
SWIDTH 500 0
DWIDTH 7 0
BBX 5 12 1 -3
BITMAP
50
00
D8
D8
D8
D8
D8
F8
70
30
E0
E0
ENDCHAR
STARTCHAR Amacron
ENCODING 256
SWIDTH 625 0
DWIDTH 9 0
BBX 7 11 1 0
BITMAP
38
00
38
7C
EE
C6
FE
FE
C6
C6
C6
ENDCHAR
STARTCHAR amacron
ENCODING 257
SWIDTH 500 0
DWIDTH 7 0
BBX 5 9 1 0
BITMAP
70
00
70
F8
D8
D8
D8
F8
78
ENDCHAR
STARTCHAR Abreve
ENCODING 258
SWIDTH 625 0
DWIDTH 9 0
BBX 7 11 1 0
BITMAP
28
30
38
7C
EE
C6
FE
FE
C6
C6
C6
ENDCHAR
STARTCHAR abreve
ENCODING 259
SWIDTH 500 0
DWIDTH 7 0
BBX 5 10 1 0
BITMAP
50
20
00
70
F8
D8
D8
D8
F8
78
ENDCHAR
STARTCHAR Aogonek
ENCODING 260
SWIDTH 625 0
DWIDTH 9 0
BBX 7 14 1 -4
BITMAP
38
7C
EE
C6
C6
FE
FE
C6
C6
C6
0E
06
0E
0C
ENDCHAR
STARTCHAR aogonek
ENCODING 261
SWIDTH 500 0
DWIDTH 7 0
BBX 5 11 1 -4
BITMAP
70
F8
D8
D8
D8
F8
78
38
18
38
30
ENDCHAR
STARTCHAR Cacute
ENCODING 262
SWIDTH 625 0
DWIDTH 9 0
BBX 6 11 2 0
BITMAP
20
40
78
FC
CC
C0
C0
C0
CC
FC
78
ENDCHAR
STARTCHAR cacute
ENCODING 263
SWIDTH 500 0
DWIDTH 7 0
BBX 5 10 1 0
BITMAP
20
20
00
70
F8
D8
C0
D8
F8
70
ENDCHAR
STARTCHAR Ccircumflex
ENCODING 264
SWIDTH 625 0
DWIDTH 9 0
BBX 6 11 2 0
BITMAP
60
50
78
FC
CC
C0
C0
C0
CC
FC
78
ENDCHAR
STARTCHAR ccircumflex
ENCODING 265
SWIDTH 500 0
DWIDTH 7 0
BBX 5 10 1 0
BITMAP
20
50
00
70
F8
D8
C0
D8
F8
70
ENDCHAR
STARTCHAR Cdotaccent
ENCODING 266
SWIDTH 625 0
DWIDTH 9 0
BBX 6 11 2 0
BITMAP
40
20
78
FC
CC
C0
C0
C0
CC
FC
78
ENDCHAR
STARTCHAR cdotaccent
ENCODING 267
SWIDTH 500 0
DWIDTH 7 0
BBX 5 10 1 0
BITMAP
20
20
00
70
F8
D8
C0
D8
F8
70
ENDCHAR
STARTCHAR Ccaron
ENCODING 268
SWIDTH 625 0
DWIDTH 9 0
BBX 6 11 2 0
BITMAP
50
60
78
FC
CC
C0
C0
C0
CC
FC
78
ENDCHAR
STARTCHAR ccaron
ENCODING 269
SWIDTH 500 0
DWIDTH 7 0
BBX 5 10 1 0
BITMAP
50
20
00
70
F8
D8
C0
D8
F8
70
ENDCHAR
STARTCHAR Dcaron
ENCODING 270
SWIDTH 687 0
DWIDTH 10 0
BBX 7 11 2 0
BITMAP
50
60
FC
FE
C6
C6
C6
C6
C6
FE
FC
ENDCHAR
STARTCHAR dcaron
ENCODING 271
SWIDTH 750 0
DWIDTH 11 0
BBX 9 10 1 0
BITMAP
0D80
0D80
0D00
6C00
FC00
DC00
CC00
DC00
FC00
6C00
ENDCHAR
STARTCHAR Dcroat
ENCODING 272
SWIDTH 687 0
DWIDTH 10 0
BBX 9 10 0 0
BITMAP
3F00
3F80
3180
3180
F980
F980
3180
3180
3F80
3F00
ENDCHAR
STARTCHAR dcroat
ENCODING 273
SWIDTH 625 0
DWIDTH 9 0
BBX 7 10 1 0
BITMAP
0C
1E
1E
6C
FC
DC
CC
DC
FC
6C
ENDCHAR
STARTCHAR Emacron
ENCODING 274
SWIDTH 562 0
DWIDTH 8 0
BBX 5 11 2 0
BITMAP
70
00
F8
F8
C0
C0
F8
F8
C0
F8
F8
ENDCHAR
STARTCHAR emacron
ENCODING 275
SWIDTH 500 0
DWIDTH 7 0
BBX 5 9 1 0
BITMAP
70
00
70
F8
D8
F8
D8
F8
70
ENDCHAR
STARTCHAR Ebreve
ENCODING 276
SWIDTH 562 0
DWIDTH 8 0
BBX 5 11 2 0
BITMAP
50
60
F8
F8
C0
C0
F8
F8
C0
F8
F8
ENDCHAR
STARTCHAR ebreve
ENCODING 277
SWIDTH 500 0
DWIDTH 7 0
BBX 5 10 1 0
BITMAP
50
20
00
70
F8
D8
F8
D8
F8
70
ENDCHAR
STARTCHAR Edotaccent
ENCODING 278
SWIDTH 562 0
DWIDTH 8 0
BBX 5 11 2 0
BITMAP
20
40
F8
F8
C0
C0
F8
F8
C0
F8
F8
ENDCHAR
STARTCHAR edotaccent
ENCODING 279
SWIDTH 500 0
DWIDTH 7 0
BBX 5 10 1 0
BITMAP
20
20
00
70
F8
D8
F8
D8
F8
70
ENDCHAR
STARTCHAR Eogonek
ENCODING 280
SWIDTH 562 0
DWIDTH 8 0
BBX 5 13 2 -4
BITMAP
F8
F8
C0
C0
F8
F8
C0
F8
F8
38
18
38
30
ENDCHAR
STARTCHAR eogonek
ENCODING 281
SWIDTH 500 0
DWIDTH 7 0
BBX 5 11 1 -4
BITMAP
70
F8
D8
F8
D8
F8
70
30
30
30
20
ENDCHAR
STARTCHAR Ecaron
ENCODING 282
SWIDTH 562 0
DWIDTH 8 0
BBX 5 11 2 0
BITMAP
50
60
F8
F8
C0
C0
F8
F8
C0
F8
F8
ENDCHAR
STARTCHAR ecaron
ENCODING 283
SWIDTH 500 0
DWIDTH 7 0
BBX 5 10 1 0
BITMAP
50
20
00
70
F8
D8
F8
D8
F8
70
ENDCHAR
STARTCHAR Gcircumflex
ENCODING 284
SWIDTH 625 0
DWIDTH 9 0
BBX 6 11 2 0
BITMAP
60
50
78
FC
CC
C0
DC
DC
CC
FC
78
ENDCHAR
STARTCHAR gcircumflex
ENCODING 285
SWIDTH 562 0
DWIDTH 8 0
BBX 6 13 1 -3
BITMAP
20
50
00
6C
FC
DC
CC
DC
FC
6C
0C
FC
F8
ENDCHAR
STARTCHAR Gbreve
ENCODING 286
SWIDTH 625 0
DWIDTH 9 0
BBX 6 11 2 0
BITMAP
50
60
78
FC
CC
C0
DC
DC
CC
FC
78
ENDCHAR
STARTCHAR gbreve
ENCODING 287
SWIDTH 562 0
DWIDTH 8 0
BBX 6 13 1 -3
BITMAP
50
20
00
6C
FC
DC
CC
DC
FC
6C
0C
FC
F8
ENDCHAR
STARTCHAR Gdotaccent
ENCODING 288
SWIDTH 625 0
DWIDTH 9 0
BBX 6 11 2 0
BITMAP
20
40
78
FC
CC
C0
DC
DC
CC
FC
78
ENDCHAR
STARTCHAR gdotaccent
ENCODING 289
SWIDTH 562 0
DWIDTH 8 0
BBX 6 13 1 -3
BITMAP
20
20
00
6C
FC
DC
CC
DC
FC
6C
0C
FC
F8
ENDCHAR
STARTCHAR Gcommaaccent
ENCODING 290
SWIDTH 625 0
DWIDTH 9 0
BBX 6 13 2 -4
BITMAP
78
FC
CC
C0
DC
DC
CC
FC
78
38
18
38
30
ENDCHAR
STARTCHAR gcommaaccent
ENCODING 291
SWIDTH 562 0
DWIDTH 8 0
BBX 6 14 1 -3
BITMAP
20
20
20
00
6C
FC
DC
CC
DC
FC
6C
0C
FC
F8
ENDCHAR
STARTCHAR Hcircumflex
ENCODING 292
SWIDTH 625 0
DWIDTH 9 0
BBX 7 11 1 0
BITMAP
30
28
C6
C6
C6
C6
FE
FE
C6
C6
C6
ENDCHAR
STARTCHAR hcircumflex
ENCODING 293
SWIDTH 562 0
DWIDTH 8 0
BBX 6 11 1 0
BITMAP
30
E8
C0
C0
F8
FC
EC
CC
CC
CC
CC
ENDCHAR
STARTCHAR Hbar
ENCODING 294
SWIDTH 750 0
DWIDTH 11 0
BBX 11 10 -1 0
BITMAP
3180
FFE0
FFE0
3180
3F80
3F80
3180
3180
3180
3180
ENDCHAR
STARTCHAR hbar
ENCODING 295
SWIDTH 562 0
DWIDTH 8 0
BBX 7 10 0 0
BITMAP
60
F0
F0
7C
7E
76
66
66
66
66
ENDCHAR
STARTCHAR Itilde
ENCODING 296
SWIDTH 375 0
DWIDTH 5 0
BBX 3 11 1 0
BITMAP
60
A0
E0
E0
60
60
60
60
60
E0
E0
ENDCHAR
STARTCHAR itilde
ENCODING 297
SWIDTH 437 0
DWIDTH 6 0
BBX 6 11 -1 0
BITMAP
7C
FC
D8
00
30
30
30
30
30
30
30
ENDCHAR
STARTCHAR Imacron
ENCODING 298
SWIDTH 375 0
DWIDTH 5 0
BBX 3 11 1 0
BITMAP
E0
00
E0
E0
60
60
60
60
60
E0
E0
ENDCHAR
STARTCHAR imacron
ENCODING 299
SWIDTH 375 0
DWIDTH 5 0
BBX 5 10 -1 0
BITMAP
F8
F8
00
30
30
30
30
30
30
30
ENDCHAR
STARTCHAR Ibreve
ENCODING 300
SWIDTH 375 0
DWIDTH 5 0
BBX 3 11 1 0
BITMAP
A0
60
E0
E0
60
60
60
60
60
E0
E0
ENDCHAR
STARTCHAR ibreve
ENCODING 301
SWIDTH 312 0
DWIDTH 4 0
BBX 4 10 0 0
BITMAP
90
60
00
60
60
60
60
60
60
60
ENDCHAR
STARTCHAR Iogonek
ENCODING 302
SWIDTH 375 0
DWIDTH 5 0
BBX 3 14 1 -4
BITMAP
E0
E0
60
60
60
60
60
60
E0
E0
60
20
60
60
ENDCHAR
STARTCHAR iogonek
ENCODING 303
SWIDTH 250 0
DWIDTH 4 0
BBX 3 14 0 -4
BITMAP
60
60
00
60
60
60
60
60
60
60
E0
60
E0
C0
ENDCHAR
STARTCHAR Idotaccent
ENCODING 304
SWIDTH 375 0
DWIDTH 5 0
BBX 3 11 1 0
BITMAP
20
40
E0
E0
60
60
60
60
60
E0
E0
ENDCHAR
STARTCHAR dotlessi
ENCODING 305
SWIDTH 250 0
DWIDTH 4 0
BBX 2 7 1 0
BITMAP
C0
C0
C0
C0
C0
C0
C0
ENDCHAR
STARTCHAR IJ
ENCODING 306
SWIDTH 812 0
DWIDTH 11 0
BBX 10 10 1 0
BITMAP
E3C0
E3C0
6180
6180
6180
6180
6180
7980
FF80
EF00
ENDCHAR
STARTCHAR ij
ENCODING 307
SWIDTH 500 0
DWIDTH 7 0
BBX 5 13 1 -3
BITMAP
D8
D8
00
D8
D8
D8
D8
D8
D8
D8
18
38
30
ENDCHAR
STARTCHAR Jcircumflex
ENCODING 308
SWIDTH 500 0
DWIDTH 7 0
BBX 6 11 0 0
BITMAP
18
14
1C
1C
18
18
18
18
D8
F8
70
ENDCHAR
STARTCHAR jcircumflex
ENCODING 309
SWIDTH 312 0
DWIDTH 4 0
BBX 5 13 -1 -3
BITMAP
30
48
00
30
30
30
30
30
30
30
30
F0
E0
ENDCHAR
STARTCHAR Kcommaaccent
ENCODING 310
SWIDTH 625 0
DWIDTH 9 0
BBX 7 14 1 -4
BITMAP
C6
CE
DC
F8
F0
E0
F8
DC
CE
C6
30
30
10
20
ENDCHAR
STARTCHAR kcommaaccent
ENCODING 311
SWIDTH 500 0
DWIDTH 7 0
BBX 6 14 0 -4
BITMAP
C0
C0
C0
CC
DC
D8
F0
D8
DC
CC
10
10
10
10
ENDCHAR
STARTCHAR kgreenlandic
ENCODING 312
SWIDTH 500 0
DWIDTH 7 0
BBX 6 7 0 0
BITMAP
CC
DC
D8
F0
D8
DC
CC
ENDCHAR
STARTCHAR Lacute
ENCODING 313
SWIDTH 500 0
DWIDTH 7 0
BBX 5 11 1 0
BITMAP
20
20
C0
C0
C0
C0
C0
C0
C0
F8
F8
ENDCHAR
STARTCHAR lacute
ENCODING 314
SWIDTH 250 0
DWIDTH 4 0
BBX 2 11 1 0
BITMAP
40
80
C0
C0
C0
C0
C0
C0
C0
C0
C0
ENDCHAR
STARTCHAR Lcommaaccent
ENCODING 315
SWIDTH 500 0
DWIDTH 7 0
BBX 5 14 1 -4
BITMAP
C0
C0
C0
C0
C0
C0
C0
C0
F8
F8
20
20
20
20
ENDCHAR
STARTCHAR lcommaaccent
ENCODING 316
SWIDTH 250 0
DWIDTH 4 0
BBX 2 14 1 -4
BITMAP
C0
C0
C0
C0
C0
C0
C0
C0
C0
00
C0
C0
40
80
ENDCHAR
STARTCHAR Lcaron
ENCODING 317
SWIDTH 500 0
DWIDTH 7 0
BBX 5 10 1 0
BITMAP
D8
D8
C8
D0
C0
C0
C0
C0
F8
F8
ENDCHAR
STARTCHAR lcaron
ENCODING 318
SWIDTH 437 0
DWIDTH 6 0
BBX 4 11 1 0
BITMAP
30
F0
D0
E0
C0
C0
C0
C0
C0
C0
C0
ENDCHAR
STARTCHAR Ldot
ENCODING 319
SWIDTH 500 0
DWIDTH 7 0
BBX 5 10 1 0
BITMAP
C0
C0
C0
C0
F0
F0
D0
C0
F8
F8
ENDCHAR
STARTCHAR ldot
ENCODING 320
SWIDTH 437 0
DWIDTH 6 0
BBX 4 10 1 0
BITMAP
C0
C0
C0
C0
F0
F0
C0
C0
C0
C0
ENDCHAR
STARTCHAR Lslash
ENCODING 321
SWIDTH 500 0
DWIDTH 7 0
BBX 7 10 -1 0
BITMAP
30
3C
3C
38
38
70
F0
30
3E
3E
ENDCHAR
STARTCHAR lslash
ENCODING 322
SWIDTH 375 0
DWIDTH 5 0
BBX 5 10 -1 0
BITMAP
30
30
38
38
38
70
F0
30
30
30
ENDCHAR
STARTCHAR Nacute
ENCODING 323
SWIDTH 687 0
DWIDTH 10 0
BBX 8 11 1 0
BITMAP
08
D3
E3
E3
F3
FB
FB
FF
CF
C7
C3
ENDCHAR
STARTCHAR nacute
ENCODING 324
SWIDTH 500 0
DWIDTH 7 0
BBX 5 10 1 0
BITMAP
20
20
00
F0
F8
D8
D8
D8
D8
D8
ENDCHAR
STARTCHAR Ncommaaccent
ENCODING 325
SWIDTH 687 0
DWIDTH 10 0
BBX 8 14 1 -4
BITMAP
C3
E3
E3
F3
FB
FB
FF
CF
C7
C3
18
18
08
10
ENDCHAR
STARTCHAR ncommaaccent
ENCODING 326
SWIDTH 500 0
DWIDTH 7 0
BBX 5 11 1 -4
BITMAP
F0
F8
D8
D8
D8
D8
D8
20
20
20
20
ENDCHAR
STARTCHAR Ncaron
ENCODING 327
SWIDTH 687 0
DWIDTH 10 0
BBX 8 11 1 0
BITMAP
24
DB
E3
E3
F3
FB
FB
FF
CF
C7
C3
ENDCHAR
STARTCHAR ncaron
ENCODING 328
SWIDTH 500 0
DWIDTH 7 0
BBX 5 10 1 0
BITMAP
50
20
00
F0
F8
D8
D8
D8
D8
D8
ENDCHAR
STARTCHAR napostrophe
ENCODING 329
SWIDTH 500 0
DWIDTH 7 0
BBX 7 11 -1 0
BITMAP
C0
C0
40
80
3C
3E
36
36
36
36
36
ENDCHAR
STARTCHAR Eng
ENCODING 330
SWIDTH 687 0
DWIDTH 10 0
BBX 8 12 1 -2
BITMAP
C3
E3
E3
F3
FB
FB
FF
CF
C7
C3
0F
0E
ENDCHAR
STARTCHAR eng
ENCODING 331
SWIDTH 500 0
DWIDTH 7 0
BBX 5 10 1 -3
BITMAP
F0
F8
D8
D8
D8
D8
D8
18
38
30
ENDCHAR
STARTCHAR Omacron
ENCODING 332
SWIDTH 687 0
DWIDTH 10 0
BBX 7 11 2 0
BITMAP
78
00
7C
FE
C6
C6
C6
C6
C6
FE
7C
ENDCHAR
STARTCHAR omacron
ENCODING 333
SWIDTH 500 0
DWIDTH 7 0
BBX 5 9 1 0
BITMAP
70
00
70
F8
D8
D8
D8
F8
70
ENDCHAR
STARTCHAR Obreve
ENCODING 334
SWIDTH 687 0
DWIDTH 10 0
BBX 7 11 2 0
BITMAP
48
30
7C
FE
C6
C6
C6
C6
C6
FE
7C
ENDCHAR
STARTCHAR obreve
ENCODING 335
SWIDTH 500 0
DWIDTH 7 0
BBX 5 10 1 0
BITMAP
50
20
00
70
F8
D8
D8
D8
F8
70
ENDCHAR
STARTCHAR Ohungarumlaut
ENCODING 336
SWIDTH 687 0
DWIDTH 10 0
BBX 7 11 2 0
BITMAP
28
50
7C
FE
C6
C6
C6
C6
C6
FE
7C
ENDCHAR
STARTCHAR ohungarumlaut
ENCODING 337
SWIDTH 500 0
DWIDTH 7 0
BBX 5 10 1 0
BITMAP
60
60
00
70
F8
D8
D8
D8
F8
70
ENDCHAR
STARTCHAR OE
ENCODING 338
SWIDTH 937 0
DWIDTH 13 0
BBX 12 10 0 0
BITMAP
7DF0
FFF0
C780
C780
C7F0
C7F0
C780
C780
FFF0
7DF0
ENDCHAR
STARTCHAR oe
ENCODING 339
SWIDTH 812 0
DWIDTH 11 0
BBX 10 7 1 0
BITMAP
7380
FFC0
DCC0
DFC0
DCC0
FFC0
7780
ENDCHAR
STARTCHAR Racute
ENCODING 340
SWIDTH 625 0
DWIDTH 9 0
BBX 7 11 1 0
BITMAP
10
20
FC
FE
C6
C6
FE
FE
C6
C6
C6
ENDCHAR
STARTCHAR racute
ENCODING 341
SWIDTH 500 0
DWIDTH 7 0
BBX 5 10 1 0
BITMAP
20
20
00
F0
F8
D8
C0
C0
C0
C0
ENDCHAR
STARTCHAR Rcommaaccent
ENCODING 342
SWIDTH 625 0
DWIDTH 9 0
BBX 7 13 1 -4
BITMAP
FC
FE
C6
C6
FE
FE
C6
C6
C6
18
18
08
10
ENDCHAR
STARTCHAR rcommaaccent
ENCODING 343
SWIDTH 500 0
DWIDTH 7 0
BBX 5 11 1 -4
BITMAP
F0
F8
D8
C0
C0
C0
C0
20
20
20
20
ENDCHAR
STARTCHAR Rcaron
ENCODING 344
SWIDTH 625 0
DWIDTH 9 0
BBX 7 11 1 0
BITMAP
28
30
FC
FE
C6
C6
FE
FE
C6
C6
C6
ENDCHAR
STARTCHAR rcaron
ENCODING 345
SWIDTH 500 0
DWIDTH 7 0
BBX 5 10 1 0
BITMAP
A0
60
00
F0
F8
D8
C0
C0
C0
C0
ENDCHAR
STARTCHAR Sacute
ENCODING 346
SWIDTH 625 0
DWIDTH 9 0
BBX 7 11 1 0
BITMAP
10
20
7C
FE
C6
C0
FC
7E
C6
FE
7C
ENDCHAR
STARTCHAR sacute
ENCODING 347
SWIDTH 500 0
DWIDTH 7 0
BBX 5 10 1 0
BITMAP
20
20
00
78
F8
C0
F8
18
F8
F0
ENDCHAR
STARTCHAR Scircumflex
ENCODING 348
SWIDTH 625 0
DWIDTH 9 0
BBX 7 11 1 0
BITMAP
30
28
7C
FE
C6
C0
FC
7E
C6
FE
7C
ENDCHAR
STARTCHAR scircumflex
ENCODING 349
SWIDTH 500 0
DWIDTH 7 0
BBX 5 10 1 0
BITMAP
20
50
00
78
F8
C0
F8
18
F8
F0
ENDCHAR
STARTCHAR Scedilla
ENCODING 350
SWIDTH 625 0
DWIDTH 9 0
BBX 7 13 1 -4
BITMAP
7C
FE
C6
C0
FC
7E
C6
FE
7C
38
18
38
30
ENDCHAR
STARTCHAR scedilla
ENCODING 351
SWIDTH 500 0
DWIDTH 7 0
BBX 5 11 1 -4
BITMAP
78
F8
C0
F8
18
F8
F0
30
30
30
20
ENDCHAR
STARTCHAR Scaron
ENCODING 352
SWIDTH 625 0
DWIDTH 9 0
BBX 7 11 1 0
BITMAP
28
30
7C
FE
C6
C0
FC
7E
C6
FE
7C
ENDCHAR
STARTCHAR scaron
ENCODING 353
SWIDTH 500 0
DWIDTH 7 0
BBX 5 10 1 0
BITMAP
50
20
00
78
F8
C0
F8
18
F8
F0
ENDCHAR
STARTCHAR Tcommaaccent
ENCODING 354
SWIDTH 625 0
DWIDTH 9 0
BBX 7 14 1 -4
BITMAP
FE
FE
30
30
30
30
30
30
30
30
30
30
30
20
ENDCHAR
STARTCHAR tcommaaccent
ENCODING 355
SWIDTH 312 0
DWIDTH 4 0
BBX 4 14 0 -4
BITMAP
60
60
60
F0
F0
60
60
60
70
30
70
30
70
60
ENDCHAR
STARTCHAR Tcaron
ENCODING 356
SWIDTH 625 0
DWIDTH 9 0
BBX 7 11 1 0
BITMAP
28
30
FE
FE
30
30
30
30
30
30
30
ENDCHAR
STARTCHAR tcaron
ENCODING 357
SWIDTH 437 0
DWIDTH 6 0
BBX 5 11 0 0
BITMAP
18
78
68
70
F0
F0
60
60
60
70
30
ENDCHAR
STARTCHAR Tbar
ENCODING 358
SWIDTH 625 0
DWIDTH 9 0
BBX 7 10 1 0
BITMAP
FE
FE
30
30
30
7C
7C
30
30
30
ENDCHAR
STARTCHAR tbar
ENCODING 359
SWIDTH 312 0
DWIDTH 4 0
BBX 4 10 0 0
BITMAP
60
60
60
F0
F0
60
F0
60
70
30
ENDCHAR
STARTCHAR Utilde
ENCODING 360
SWIDTH 687 0
DWIDTH 10 0
BBX 7 11 2 0
BITMAP
28
50
C6
C6
C6
C6
C6
C6
C6
FE
7C
ENDCHAR
STARTCHAR utilde
ENCODING 361
SWIDTH 500 0
DWIDTH 7 0
BBX 5 10 1 0
BITMAP
30
60
00
D8
D8
D8
D8
D8
F8
78
ENDCHAR
STARTCHAR Umacron
ENCODING 362
SWIDTH 687 0
DWIDTH 10 0
BBX 7 11 2 0
BITMAP
78
00
C6
C6
C6
C6
C6
C6
C6
FE
7C
ENDCHAR
STARTCHAR umacron
ENCODING 363
SWIDTH 500 0
DWIDTH 7 0
BBX 5 9 1 0
BITMAP
70
00
D8
D8
D8
D8
D8
F8
78
ENDCHAR
STARTCHAR Ubreve
ENCODING 364
SWIDTH 687 0
DWIDTH 10 0
BBX 7 11 2 0
BITMAP
48
30
C6
C6
C6
C6
C6
C6
C6
FE
7C
ENDCHAR
STARTCHAR ubreve
ENCODING 365
SWIDTH 500 0
DWIDTH 7 0
BBX 5 10 1 0
BITMAP
50
20
00
D8
D8
D8
D8
D8
F8
78
ENDCHAR
STARTCHAR Uring
ENCODING 366
SWIDTH 687 0
DWIDTH 10 0
BBX 7 11 2 0
BITMAP
30
48
F6
C6
C6
C6
C6
C6
C6
FE
7C
ENDCHAR
STARTCHAR uring
ENCODING 367
SWIDTH 500 0
DWIDTH 7 0
BBX 5 10 1 0
BITMAP
20
50
20
D8
D8
D8
D8
D8
F8
78
ENDCHAR
STARTCHAR Uhungarumlaut
ENCODING 368
SWIDTH 687 0
DWIDTH 10 0
BBX 7 11 2 0
BITMAP
28
50
C6
C6
C6
C6
C6
C6
C6
FE
7C
ENDCHAR
STARTCHAR uhungarumlaut
ENCODING 369
SWIDTH 500 0
DWIDTH 7 0
BBX 5 10 1 0
BITMAP
60
60
00
D8
D8
D8
D8
D8
F8
78
ENDCHAR
STARTCHAR Uogonek
ENCODING 370
SWIDTH 687 0
DWIDTH 10 0
BBX 7 14 2 -4
BITMAP
C6
C6
C6
C6
C6
C6
C6
C6
FE
7C
38
18
38
30
ENDCHAR
STARTCHAR uogonek
ENCODING 371
SWIDTH 500 0
DWIDTH 7 0
BBX 5 11 1 -4
BITMAP
D8
D8
D8
D8
D8
F8
78
38
18
38
30
ENDCHAR
STARTCHAR Wcircumflex
ENCODING 372
SWIDTH 750 0
DWIDTH 11 0
BBX 9 11 1 0
BITMAP
1800
2400
C180
C180
C180
D980
D980
D980
FF80
7F00
2600
ENDCHAR
STARTCHAR wcircumflex
ENCODING 373
SWIDTH 750 0
DWIDTH 11 0
BBX 9 10 1 0
BITMAP
1800
2400
0000
D980
D980
D980
D980
D980
FF80
7F80
ENDCHAR
STARTCHAR Ycircumflex
ENCODING 374
SWIDTH 625 0
DWIDTH 9 0
BBX 7 11 1 0
BITMAP
30
28
C6
EE
6C
7C
38
30
30
30
30
ENDCHAR
STARTCHAR ycircumflex
ENCODING 375
SWIDTH 500 0
DWIDTH 7 0
BBX 5 13 1 -3
BITMAP
20
50
00
D8
D8
D8
D8
D8
F8
70
30
E0
E0
ENDCHAR
STARTCHAR Ydieresis
ENCODING 376
SWIDTH 625 0
DWIDTH 9 0
BBX 7 11 1 0
BITMAP
28
00
C6
EE
6C
7C
38
30
30
30
30
ENDCHAR
STARTCHAR Zacute
ENCODING 377
SWIDTH 687 0
DWIDTH 10 0
BBX 9 11 0 0
BITMAP
0800
1000
FF80
FF80
0700
0E00
1C00
3800
7000
FF80
FF80
ENDCHAR
STARTCHAR zacute
ENCODING 378
SWIDTH 500 0
DWIDTH 7 0
BBX 5 10 1 0
BITMAP
20
20
00
F8
F8
30
20
60
F8
F8
ENDCHAR
STARTCHAR Zdotaccent
ENCODING 379
SWIDTH 687 0
DWIDTH 10 0
BBX 9 11 0 0
BITMAP
1000
0800
FF80
FF80
0700
0E00
1C00
3800
7000
FF80
FF80
ENDCHAR
STARTCHAR zdotaccent
ENCODING 380
SWIDTH 500 0
DWIDTH 7 0
BBX 5 10 1 0
BITMAP
20
20
00
F8
F8
30
20
60
F8
F8
ENDCHAR
STARTCHAR Zcaron
ENCODING 381
SWIDTH 687 0
DWIDTH 10 0
BBX 9 11 0 0
BITMAP
1400
1800
FF80
FF80
0700
0E00
1C00
3800
7000
FF80
FF80
ENDCHAR
STARTCHAR zcaron
ENCODING 382
SWIDTH 500 0
DWIDTH 7 0
BBX 5 10 1 0
BITMAP
50
20
00
F8
F8
30
20
60
F8
F8
ENDCHAR
STARTCHAR Euro
ENCODING 8364
SWIDTH 625 0
DWIDTH 9 0
BBX 7 10 1 0
BITMAP
3C
3E
66
F8
F8
60
F8
66
3E
3C
ENDCHAR
STARTCHAR uni3000
ENCODING 12288
SWIDTH 1000 0
DWIDTH 14 0
BBX 1 1 0 0
BITMAP
00
ENDCHAR
STARTCHAR .notdef
ENCODING -1
SWIDTH 365 0
DWIDTH 5 0
BBX 4 10 0 0
BITMAP
F0
90
90
90
90
90
90
90
90
F0
ENDCHAR
STARTCHAR .null
ENCODING -1
SWIDTH 0 0
DWIDTH 0 0
BBX 1 1 0 0
BITMAP
00
ENDCHAR
STARTCHAR nonmarkingreturn
ENCODING -1
SWIDTH 333 0
DWIDTH 5 0
BBX 1 1 0 0
BITMAP
00
ENDCHAR
ENDFONT
